# xmcd CD database file
#
# Track frame offsets:
#	150
#	23077
#	45945
#	68250
#	89107
#	107425
#	147070
#	168555
#	186022
#	215012
#	239177
#	259417
#
# Disc length: 3810 seconds
#
# Revision: 1
# Processed by: cddbd v1.5PL3 Copyright (c) Steve Scherf et al.
# Submitted via: CDex 1.51
#
DISCID=a70ee00c
DTITLE=Various (Lee Ritenour) - a twist of jobim
DYEAR=1997
DGENRE=Jazz
TTITLE0=Lee Ritenour and Dave Grusin - Water To Drink (Agua De Beber)
TTITLE1=Dave Grusin, Lee Ritenour and Eric Marienthal - Captain Bacardi
TTITLE2=El Debarge and Art Porter - Dindi
TTITLE3=Al Jarreau and Oleta Adams - Waters of March
TTITLE4=Dave Grusin/ Bonita
TTITLE5=Herbie Hancock and Paulinho DaCosta - Stone Flower
TTITLE6=Lee Ritenour and Eric Marienthal - Favela
TTITLE7=Alan Pasqua and Ernie Watts - Children's Games
TTITLE8=Ernie Watts and Christian McBride - Lamento
TTITLE9=Yellowjackets and Lee Ritenour - Mojave
TTITLE10=Al Jarreau and Oleta Adams - Girl From Ipanema
TTITLE11=Lee Ritenour and Ernie Watts - Antigua
EXTD=YEAR: 1997
EXTT0=
EXTT1=
EXTT2=
EXTT3=
EXTT4=
EXTT5=
EXTT6=
EXTT7=
EXTT8=
EXTT9=
EXTT10=
EXTT11=
PLAYORDER=
